<?xml version="1.0" standalone="no"?>
<!DOCTYPE svg PUBLIC "-//W3C//DTD SVG 20010904//EN"
 "http://www.w3.org/TR/2001/REC-SVG-20010904/DTD/svg10.dtd">
<svg version="1.0"
    xmlns="http://www.w3.org/2000/svg" width="1280.000000pt" height="1249.000000pt" viewBox="0 0 1280.000000 1249.000000" preserveAspectRatio="xMidYMid meet">

    <g transform="translate(0.000000,1249.000000) scale(0.100000,-0.100000)" fill="#000000" stroke="none">
        <path d="M4400 11120 c0 -753 -2 -1370 -5 -1370 -3 0 -534 311 -1181 692 -993
584 -1177 689 -1188 677 -18 -20 -2016 -3416 -2016 -3428 0 -5 561 -338 1246
-741 l1246 -733 -51 -31 c-27 -17 -583 -355 -1235 -751 -652 -396 -1185 -724
-1186 -728 0 -6 2063 -3402 2074 -3414 2 -2 517 310 1145 692 628 382 1144
695 1146 695 3 0 5 -603 5 -1340 l0 -1340 2000 0 2000 0 0 1370 c0 754 2 1370
5 1370 3 0 534 -311 1181 -692 993 -584 1177 -689 1188 -677 18 20 2016 3416
2016 3428 0 5 -561 338 -1246 741 l-1246 733 51 31 c27 17 583 355 1235 751
652 396 1185 724 1186 728 0 6 -2063 3402 -2074 3414 -2 2 -517 -310 -1145
-692 -628 -382 -1144 -695 -1146 -695 -3 0 -5 603 -5 1340 l0 1340 -2000 0
-2000 0 0 -1370z m3790 -270 c0 -781 2 -1420 5 -1420 3 0 546 329 1207 731
660 402 1206 733 1212 735 8 3 1605 -2602 1858 -3031 5 -8 -417 -269 -1291
-801 -960 -583 -1296 -792 -1287 -800 6 -6 592 -352 1301 -769 710 -417 1293
-761 1298 -764 6 -6 -1777 -3050 -1800 -3072 -4 -4 -568 322 -1253 726 l-1245
732 -3 -1448 -2 -1449 -1790 0 -1790 0 0 1420 c0 781 -2 1420 -5 1420 -3 0
-546 -329 -1207 -731 -660 -402 -1206 -733 -1212 -735 -8 -3 -1605 2602 -1858
3031 -5 8 417 269 1291 801 960 583 1296 792 1287 800 -6 6 -591 352 -1301
769 -710 417 -1293 761 -1298 764 -6 6 1777 3050 1800 3072 4 4 568 -322 1253
-726 l1245 -732 3 1448 2 1449 1790 0 1790 0 0 -1420z"/>
        <path d="M4830 10520 c0 -841 -2 -1530 -4 -1530 -2 0 -596 349 -1321 775 -724
427 -1318 775 -1320 773 -1 -2 -358 -608 -793 -1348 -704 -1196 -790 -1346
-775 -1357 9 -7 625 -371 1370 -809 744 -438 1353 -799 1353 -802 0 -4 -608
-376 -1351 -827 -743 -451 -1353 -825 -1355 -831 -5 -10 1580 -2629 1610
-2661 9 -10 297 161 1286 763 701 427 1281 778 1288 781 9 4 12 -300 12 -1501
l0 -1506 1570 0 1570 0 0 1530 c0 842 2 1530 4 1530 2 0 596 -349 1321 -775
724 -427 1318 -775 1320 -773 1 2 358 608 793 1348 704 1196 790 1346 775
1357 -9 7 -625 371 -1370 809 -744 438 -1353 799 -1353 802 0 4 608 376 1351
827 743 451 1353 825 1355 831 5 10 -1580 2629 -1610 2661 -9 10 -297 -161
-1286 -763 -701 -427 -1281 -778 -1287 -781 -10 -4 -13 300 -13 1501 l0 1506
-1570 0 -1570 0 0 -1530z m1705 279 c68 -25 139 -90 152 -139 6 -22 7 -162 2
-370 -4 -184 -8 -385 -8 -447 l-1 -111 -57 57 c-99 99 -246 151 -423 151 l-97
0 -7 340 c-8 363 -6 385 40 447 71 95 250 128 399 72z m-242 -959 c158 -18
252 -65 288 -144 24 -52 23 -80 -2 -136 -70 -155 -313 -279 -582 -297 -76 -5
-94 -10 -135 -37 -71 -47 -143 -125 -182 -196 -34 -63 -35 -68 -35 -175 0 -97
3 -118 27 -173 39 -92 110 -192 207 -294 l86 -91 15 -398 c8 -220 13 -399 10
-399 -16 0 -148 132 -213 212 -204 252 -349 552 -423 875 -37 165 -45 387 -16
523 39 188 134 365 267 495 95 93 190 151 323 195 143 48 221 56 365 40z m352
-1719 l-27 -1376 -212 -206 -211 -207 -3 62 c-5 110 -69 2781 -67 2784 1 2 39
12 84 22 191 46 336 141 431 282 14 21 27 32 29 26 2 -6 -9 -630 -24 -1387z
m305 -593 c145 -165 243 -329 289 -483 80 -271 31 -579 -123 -767 -53 -65
-208 -192 -444 -362 -281 -203 -386 -294 -484 -415 -105 -131 -158 -264 -158
-397 l0 -69 -36 60 c-61 100 -120 226 -150 315 -37 113 -39 272 -6 364 37 100
64 135 234 301 511 500 692 684 719 730 53 92 63 168 56 446 -5 248 -1 369 14
369 4 0 44 -42 89 -92z m-359 -2463 c-13 -521 -20 -686 -30 -705 -30 -56 -115
-162 -177 -219 -58 -55 -121 -98 -129 -89 -2 2 -12 300 -23 663 l-20 660 24
36 c35 52 175 188 278 269 49 39 90 69 91 68 1 -2 -5 -309 -14 -683z m249 -52
c91 -104 147 -302 166 -594 7 -116 -2 -176 -42 -266 -54 -125 -122 -201 -486
-546 -97 -92 -205 -204 -239 -250 -113 -149 -168 -300 -169 -459 0 -43 -4 -78
-10 -78 -25 0 -122 113 -152 176 -27 58 -32 81 -36 172 -6 123 7 207 54 350
56 171 130 263 344 422 196 145 246 188 306 263 138 174 194 378 194 706 0
155 1 161 19 152 10 -6 33 -27 51 -48z m-296 -1580 c-2 -60 -9 -373 -15 -698
l-10 -590 -100 -185 c-56 -102 -105 -189 -110 -194 -5 -6 -9 32 -10 95 0 57
-8 388 -18 734 l-19 630 37 55 c37 55 227 260 242 260 4 0 6 -48 3 -107z m116
-829 c131 -122 171 -288 120 -490 -40 -158 -198 -429 -330 -566 -66 -67 -115
-83 -158 -51 -53 40 -55 34 98 299 78 137 151 260 161 274 9 14 25 52 34 85
16 53 17 87 11 277 -5 157 -4 218 4 218 6 0 33 -21 60 -46z"/>
        <path d="M6228 9719 c-54 -31 -37 -89 31 -110 33 -10 45 -9 78 7 30 15 39 25
41 51 2 23 -3 35 -20 47 -25 18 -103 21 -130 5z"/>
    </g>
</svg>
